<?xml version="1.0" encoding="UTF-8" standalone="no"?><!DOCTYPE svg PUBLIC "-//W3C//DTD SVG 1.1//EN" "http://www.w3.org/Graphics/SVG/1.1/DTD/svg11.dtd"><svg width="100%" height="100%" viewBox="0 0 1076 64" version="1.1" xmlns="http://www.w3.org/2000/svg" xmlns:xlink="http://www.w3.org/1999/xlink" xml:space="preserve" xmlns:serif="http://www.serif.com/" style="fill-rule:evenodd;clip-rule:evenodd;stroke-linejoin:round;stroke-miterlimit:2;"><rect id="Artboard1" x="0" y="0" width="1076" height="64" style="fill:none;"/><path d="M962.585,8.564c0.612,0.479 1.683,0.1 2.379,-0.846l0.083,0.104c0.892,1.108 1.629,-0.458 1.962,-0.183c1.183,1.013 1.983,0.908 3.279,0.054c0.337,-0.229 1.917,1.05 3.029,1.246l0.825,0.15c1.05,-0.35 2.592,-0.529 3.429,-0.396c0.833,0.129 4.263,0.763 5.775,1.075l1.192,-0.992c0.142,-0.121 0.55,-0.138 0.771,-0.071c1.429,0.467 2.833,1.329 4.258,1.342l1.146,0.013c1.096,-0.763 1.862,-0.196 1.708,1.271l2.196,-1.708l1.838,-1.429c1.8,0.667 4.254,0.896 5.462,0.508c1.208,-0.392 4.837,1.462 6.125,1.367c1.296,-0.092 5.629,1.233 6.929,1.5l-0.087,-1.575c-0.004,-0.092 0.796,-0.375 0.938,-0.283l1.683,1.083c2.033,-0.329 4.312,-0.125 5.058,0.462c0.746,0.583 3.383,-0.658 4.042,-0.367c0.658,0.292 3.162,0.733 4.029,0.304c0.862,-0.433 5.683,-0.292 8.408,-0.2l2.358,0.979c0.767,0.325 2.237,-0.654 3.425,-0.767l0.858,-0.088c1.013,0.271 2.192,0.279 2.629,0.021l0.05,0.042l2.167,1.725c2.583,-0.917 5,-0.725 5.379,0.425c0.379,1.146 2.442,3.875 2.958,3.796c0.517,-0.083 1.929,-0.033 2.021,0.279c0.092,0.317 -0.529,1.517 -1.379,1.971c-0.846,0.45 -0.938,4.092 -2.296,5.996l0.458,2.367l0.108,0.546c-0.05,0.85 -0.379,1.333 -0.729,1.075c-0.35,-0.254 -1.288,-0.271 -1.613,0.312l0.021,0.008c2.358,0.954 -0.433,2.55 0.688,3.638c0.129,0.129 0.125,0.504 -0.008,0.625l-1.792,1.587c-0.071,1.204 -2,2.529 -4.283,2.946l-2.025,-1.538l-0.333,-0.258c-1.321,0.55 -3.45,1.025 -4.737,1.067c-1.287,0.038 -5.608,-0.296 -6.804,-0.05l-1.104,0.017l-1.083,0.017c-1.163,-0.208 -2.529,-0.388 -3.038,-0.404c-0.508,-0.012 -2.408,-0.121 -3.021,0.054c-0.617,0.175 -4.717,0.325 -7.717,0.312c-3,-0.017 -12.308,-0.071 -14.033,-0.275c-1.721,-0.204 -6.329,1.233 -6.733,1.233l-0.375,0.025l-2.267,0.171c-2.438,-0.417 -5.354,-0.508 -6.483,-0.212c-1.129,0.292 -4.792,-0.617 -5.738,-0.483c-0.938,0.125 -4.275,0.375 -5.396,0.129c-1.121,-0.25 -6.608,0.317 -9.258,0.392l-2.442,0c-2.446,0 -4.887,0.004 -7.329,0c-1.504,0 -3.862,0.471 -4.337,-0.1c-1.108,-1.329 -2.587,0.538 -3.413,-0.638c-0.158,-0.229 -1.046,-0.233 -1.554,-0.158c-1.138,0.163 -2.796,0.929 -3.271,0.579l-1.629,-1.204c-1.204,0.854 -2.867,1.296 -3.688,0.975c-0.825,-0.321 -2.629,-0.512 -3.604,-0.8c-0.975,-0.279 -3.954,0.842 -4.8,0.388c-0.842,-0.454 -3.804,1.079 -4.737,1.254c-0.933,0.171 -4.45,-1.279 -6.2,-1.587l-1.858,1.133l-1.325,0.808c-2.6,-0.379 -5.171,-0.888 -5.713,-1.125c-0.542,-0.237 -3.021,-0.562 -4.35,-0.779c-1.333,-0.221 -6.454,1.787 -8.792,2.658l-1.646,-2.279c-0.146,-0.204 -1.304,-0.237 -1.592,-0.008c-1.796,1.417 -3.854,-0.971 -5.696,0.346c-0.583,0.417 -1.696,0.575 -2.517,0.496c-1.558,-0.154 -3.075,-0.792 -4.612,-0.813l-1.342,-0.008c-1.458,0.408 -3.342,0.667 -4.179,0.562c-0.842,-0.1 -3.854,-0.158 -4.562,-0.492c-0.713,-0.329 -3.475,0.917 -4.396,1.262c-0.917,0.35 -3.371,-1.1 -4.258,-0.746c-0.892,0.358 -4.871,0.088 -6.479,-0.167l-1.458,-0.004c-1.421,0 -2.85,0.437 -4.267,0.412l-2.638,-0.046c-2.879,-0.337 -7.55,-0.571 -10.379,-0.512l-2.371,0.658l-2.075,0.579c-2.125,-0.433 -5.854,-0.725 -8.292,-0.646l-22.554,0c-2.254,0 -4.513,-0.067 -6.763,0.021l-1.404,0.058c-1.529,0.333 -3.008,0.646 -3.283,0.696c-0.275,0.05 -2.375,-0.225 -4.079,-0.508c-1.704,-0.279 -11.263,0.421 -11.946,0.196c-0.688,-0.225 -2.587,-0.154 -3.288,-0.254c-0.7,-0.092 -4.183,0.637 -5.992,0.708l-29.312,0c-1.854,0.021 -7.362,0.163 -12.242,0.317c-4.879,0.154 -19.246,1.167 -21.096,1.808l-0.55,-0.408l-1.4,-1.033c-0.946,0.658 -2.862,0.633 -4.25,-0.046l-1.733,1.092c-0.938,0.592 -2.908,0.108 -4.408,0.108l-2.442,0c-2.679,-0.038 -5.808,0.154 -6.95,0.421c-1.138,0.267 -5.2,-0.754 -6.413,-1.458l-0.863,1.092l-1.25,1.592c-0.987,-0.892 -2.917,-1.462 -4.283,-1.271c-1.363,0.183 -5.842,0.467 -6.904,0.392c-1.062,-0.067 -5.262,0.587 -7.204,0.312l-1.775,-0.133l-1.863,-0.138c-2.071,0.071 -4.658,0.35 -5.746,0.621c-1.083,0.275 -4.271,0.463 -5.971,1.129l-1.975,-0.621c-1.637,-0.513 -3.712,-0.108 -5.587,-0.108l-1.879,0c-2.063,0.025 -4.629,0.408 -5.7,0.85l-1.946,0c-1.058,-0.429 -5.579,-0.683 -10.046,-0.562c-4.471,0.121 -16.842,1.342 -17.575,2.275l-1.342,-1.342c-0.304,-0.308 -2.108,0.471 -3.25,0.592l-1.108,0.117c-1.229,-0.021 -3.117,-0.579 -4.192,-1.242c-1.075,-0.667 -4.946,1.104 -6.183,1.117c-1.233,0.013 -5.508,0.017 -6.746,0c-1.242,-0.021 -5.671,0.292 -7.096,0.575l-1.292,0.004c-1.213,0.008 -2.446,-0.558 -3.642,-0.504l-2.329,0.117c-2.546,-0.088 -6.45,-0.121 -8.675,-0.075c-2.221,0.05 -8.833,0.987 -10.208,0.721l-1.246,-0.062l-1.804,-0.088c-1.975,0.225 -4.412,0.225 -5.413,0c-1,-0.229 -4.412,1.15 -5.754,1.3c-1.346,0.146 -6.287,-0.025 -7.837,0c-1.55,0.025 -8.25,0.029 -11.471,0.25c-3.221,0.225 -14.429,0.55 -17.738,0.588c-3.308,0.033 -12.579,0.167 -13.262,0.504c-0.683,0.342 -3.738,-0.521 -4.629,-0.642c-0.892,-0.117 -4.167,1.092 -5.738,1.183c-1.567,0.096 -7.921,-0.033 -10.508,0.004c-2.587,0.042 -11.404,-0.021 -13.9,0.25c-2.492,0.271 -13.162,0.492 -18.125,0.492l-9.204,0c-5.171,-0.008 -10.513,0.013 -11.879,0.05l-1.021,0.85c-0.963,0.8 -1.808,-1.771 -3.146,-0.167l-0.271,0.325c-1.208,-0.2 -2.954,-0.092 -3.879,0.238c-0.929,0.329 -4.45,-0.883 -6.55,-0.417l-1.929,0.008l-14.658,0.062c-16.121,0.004 -30.992,-0.321 -33.046,-0.729l-1.571,1.404l-0.237,0.217c-0.671,-0.096 -2.183,-0.308 -3.358,-0.475c-1.175,-0.162 -4.604,-0.108 -5.021,0.208c-0.413,0.317 -2.217,-0.412 -2.713,-0.221c-0.492,0.192 -2.854,0.346 -4.025,0.242l-1.067,-0.121l-5.108,0.296l-1.121,0.025c-1.225,0.008 -2.433,-0.292 -2.679,-0.671c-0.246,-0.379 -2.55,0.392 -3.625,0.425l-1.004,-0.104c-0.492,-0.054 -1.121,-0.608 -1.387,-0.483l-3.846,1.725c-4.467,-0.487 -11.842,-0.871 -16.383,-0.85l-14.471,0c-2.662,0.067 -5.879,-0.042 -7.158,-0.242c-1.275,-0.2 -5.842,1.679 -7.829,2.321l-1.321,-1.896c-0.158,-0.229 -1.2,-0.338 -1.529,-0.15l-1.883,1.075c-2.108,-0.458 -5.6,-0.629 -7.758,-0.383l-1.958,0.154c-2.237,0.171 -4.508,0.037 -6.763,0.037l-27.996,0c-2.271,0.021 -5.529,-0.171 -7.246,-0.421c-1.712,-0.254 -6.592,1.067 -7.208,0.85c-0.617,-0.217 -4.45,-0.487 -7.108,-0.617c-2.658,-0.129 -10.362,0.971 -11.304,0.929c-0.942,-0.046 -3.858,-0.079 -4.542,-0.483c-0.683,-0.4 -3.767,0.637 -4.654,0.754c-0.888,0.117 -3.804,-0.783 -4.95,-0.508c-1.142,0.283 -5.092,0.488 -6.162,0.629c-1.075,0.142 -4.604,-0.779 -5.408,-0.608c-0.804,0.167 -4.683,0.342 -6.75,0.329c-2.067,-0.012 -10.488,-0.196 -14.121,-0.542l-3.1,1.483l-0.562,0.267c-0.879,-0.15 -3.096,-0.233 -4.913,-0.183l-3.067,-1.533c-1.383,0.746 -3.521,1.188 -4.754,0.992l-1.392,0.396l-1.504,0.438c-1.938,-0.196 -4.204,-0.242 -5.033,-0.1c-0.829,0.146 -6.875,-1.175 -12.025,-1.496l-4.304,2.05l-1.533,0.733c-1.713,-0.346 -4.038,-0.613 -5.175,-0.6c-1.133,0.017 -5.037,0.046 -6.15,0.129c-1.112,0.079 -3.737,-0.437 -4.2,-0.275c-0.467,0.158 -3.054,0.192 -4.496,0.167c-1.446,-0.021 -6.233,-0.113 -7.429,-0.217c-1.192,-0.108 -4.742,0.183 -5.75,-0.1c-1.013,-0.279 -3.317,1 -3.612,0.754c-0.287,-0.25 -1.646,-0.863 -2.029,-0.525c-0.383,0.338 -2.704,0.942 -3.929,0.975l-1.129,0c-2.067,0 -4.133,-0.008 -6.2,0.004l-1.146,0.008c-0.517,-0.738 -1.104,-1.342 -1.312,-1.346c-0.208,0 -0.804,0.321 -0.867,0.725c-0.067,0.4 -2.992,0.392 -4.954,0.129l-1.792,-0.012l-1.387,-0.013c-1.638,-0.042 -2.721,-0.142 -2.417,-0.233c0.3,-0.083 0.904,-0.817 0.433,-1.367c-0.467,-0.55 -0.746,-2.617 -0.537,-3.279c0.212,-0.662 0.375,-2.683 -0.296,-2.683c-0.671,0 -2.179,0.212 -2.046,0.479c0.133,0.258 0.192,0.983 -0.142,1.079c-0.338,0.092 -1.375,-0.4 -1.983,-0.879c-0.6,-0.475 -3.554,-1.488 -4.138,-2.029c-0.579,-0.537 -1.642,-2.767 -0.487,-3.012c1.154,-0.254 2.475,2.646 3.246,3.212l0.958,0c0.329,0.004 0.762,-0.467 0.958,-0.796l0.108,-0.188c-0.213,-0.333 -0.629,-0.525 -0.917,-0.429c-0.296,0.1 -1.238,0.083 -1.238,-0.329c0,-0.412 0.95,-1.779 2.113,-2.062c1.158,-0.275 4.483,-1.529 4.483,-2.079c0,-0.55 0.408,-2.283 0.904,-1.667c0.496,0.617 2.479,1.629 3.283,0.867l0.271,-0.7c0.354,-0.938 0.596,-0.729 1.35,-0.292l0.529,0.308c0.838,0.038 3.071,0.079 4.962,0.1c1.892,0.017 6.425,-1.496 6.008,-1.663c-0.417,-0.163 1.004,-1.212 4.075,-1.971l3.317,1.217c0.629,0.233 1.296,0.458 1.971,0.529l0.483,0.05c0.825,-0.229 1.096,-0.867 0.604,-1.421c-0.488,-0.558 -1.304,-2.142 -0.725,-2.3l0.483,0.062c0.567,0.067 1.3,0.658 1.596,0.517l1.883,-0.9c1.163,1.071 2.479,1.992 2.929,2.046c0.454,0.054 2.304,-0.042 1.867,-0.442c-0.446,-0.404 0.008,-1.358 0.929,-2.062c0.925,-0.708 4.371,-0.846 5.008,-0.783c0.646,0.071 3.246,-0.075 4.183,0.037c0.946,0.108 3.746,-0.096 5.05,0.258c1.304,0.354 3.925,-1.996 4.633,-1.917c0.708,0.071 2.025,1.417 2.154,1.579c0.129,0.163 0.646,0.358 0.862,0.075l0.004,-0.263l0.033,-2.508c2.175,0.379 5.108,1.179 6.508,1.783l1.758,-0.846l1.587,-0.767c2.196,-0.237 4.729,-0.717 5.633,-1.067c0.904,-0.354 3.083,1.146 3.504,1l0.371,-0.646c0.488,-0.142 1.813,-0.025 2.946,0.262l1.038,-0.008l1.525,-0.017c1.612,-0.342 3.467,-0.721 4.125,-0.842c0.658,-0.125 3.567,-0.258 4.825,-0.396c1.254,-0.133 5.658,-0.392 6.983,-0.2c1.325,0.192 5.637,-1.133 6.942,-1.254c1.304,-0.117 5.092,0.521 5.696,0.133c0.604,-0.383 3.013,0.387 3.6,-0.004c0.592,-0.392 2.633,0.371 3,0.075c0.367,-0.296 1.717,-0.833 2.154,-0.5c0.433,0.333 2.133,0.996 2.892,0.788c0.758,-0.2 3.717,-0.383 4.9,-0.288c1.179,0.1 4.721,-0.267 5.604,-0.192c0.879,0.079 3.671,-0.254 4.321,-0.5c0.646,-0.246 3.296,-0.567 4.517,-0.796c1.217,-0.233 4.812,1.396 5.587,1.637c0.767,0.246 1.683,-1.708 2.096,-1.883l0.229,0.096l1.758,0.775c1.783,-0.571 3.4,-1.117 3.592,-1.213l0.129,0.038c0.979,0.283 2.087,0.992 2.883,0.804l0.954,-0.225c0.838,0.167 1.921,0.063 2.421,-0.229c0.492,-0.3 2.883,-0.033 3.946,0.342l1.004,0.183l0.683,0.121c0.796,-0.142 2.342,-0.329 3.433,-0.417c1.092,-0.079 5.004,-0.017 6.421,0.729l1.671,-1.225c0.95,-0.696 2.904,0.454 4.163,-0.675c0.117,-0.104 1.012,0.437 1.583,0.567l2.496,0.583c2.762,-0.317 5.533,-0.913 6.158,-1.329c0.625,-0.412 2.896,0.321 3.4,-0.163c0.5,-0.479 2.483,0.754 2.808,0.863c0.329,0.112 1.825,0.204 2.95,0.429c1.125,0.221 5.3,-0.779 7.304,-0.967l1.467,1.221l0.217,0.183c0.613,0.117 1.533,-0.187 2.05,-0.679c0.517,-0.488 1.862,-0.879 2.712,-0.996c0.854,-0.117 4.967,0.196 7.183,0.596l1.767,-1.504c0.45,-0.383 1.946,0.183 2.721,-0.108l1.742,-0.658c1.5,0.704 3.233,1.333 3.85,1.4c0.621,0.071 2.908,-0.392 3.742,-0.117l0.75,0.35c0.975,0.446 1.433,-1.75 2.675,-0.317c0.117,0.138 1.392,-0.558 2.137,-0.571l1.05,-0.012c1.133,0.262 2.396,0.571 2.8,0.687c0.4,0.125 2.879,-0.179 4.379,-0.079c1.504,0.1 5.425,-1.346 5.829,-1.175c0.4,0.171 2.421,1.117 3.479,1.842l1.046,-1.412l1.587,-2.15c2.321,0.9 5.296,1.854 6.608,2.117c1.308,0.262 5.708,-0.792 6.725,-1.171c1.017,-0.379 3.808,-0.4 4.808,-0.629l0.654,0.388l0.729,0.429c0.625,0.675 1.8,0.675 2.617,0.008l0.675,-0.529l0.117,-0.096c0.4,-0.129 1.129,0.033 1.617,0.367c0.487,0.329 2.283,0.954 2.8,0.583c0.521,-0.375 4.783,-0.363 5.625,-0.15c0.846,0.208 2.825,0.079 3.646,0.263c0.821,0.183 2.65,-0.258 3.333,-0.213c0.683,0.042 3.138,-0.258 3.996,-0.675c0.863,-0.417 4.554,0.854 6.287,1.092l1.125,-1.338c0.117,-0.142 0.725,-0.058 1.087,-0.012l2.292,0.292c2.513,0.296 5.525,0.083 6.696,-0.471c1.171,-0.554 5.533,0.962 7.017,0.929l1.192,-0.267l1.108,-0.246c1.233,-0.038 3.237,-0.283 4.458,-0.542c1.221,-0.262 4.454,1.196 4.871,1.3l0.292,-0.1l3.304,-1.212c3.821,0.171 7.729,0.292 8.692,0.271c0.954,-0.021 4.521,0.267 6.033,1.15l1.3,-1.9l0.575,-0.842c1.604,0.408 3.283,1.129 3.733,1.6c0.45,0.471 2.871,-0.754 3.525,-0.892c0.654,-0.137 2.725,0.829 3.362,0.913l0.292,-0.217l1.567,-1.146c1.529,0.679 3.667,1.363 4.746,1.521c1.079,0.158 4.146,-0.546 4.9,-0.888c0.746,-0.337 3.333,0.358 3.729,0.254c0.396,-0.112 1.812,-0.75 2.242,-1.137c0.433,-0.383 2.104,0.233 2.512,-0.221l1.263,0.517l1.396,0.567c2.087,-0.333 4.883,-0.833 6.217,-1.104c1.329,-0.279 4.85,0.458 5.442,0.342c0.596,-0.125 3.025,0.171 4.125,0.471l1.029,0.083l0.371,0.025c0.579,-0.554 1.163,-0.571 1.3,-0.025c0.137,0.542 1.233,1.887 2.054,1.458c0.821,-0.425 3.413,-1.625 4.087,-1.908c0.671,-0.279 5.375,-0.329 6.204,-0.175c0.825,0.15 3.517,-0.979 4.55,-1.075c1.037,-0.096 4.55,0.058 5.45,0.354c0.9,0.304 5.429,-0.112 7.762,-0.15l1.446,-0.75l1.3,-0.671c0.812,0.542 1.808,1.229 2.208,1.529c0.396,0.296 3.912,-0.271 5.712,-0.737c1.8,-0.471 7.346,-0.35 8.087,-0.121c0.746,0.238 3.55,0.254 4.596,0.075c1.05,-0.175 4.725,-0.433 5.812,-0.35c1.088,0.083 4.004,-0.642 4.604,-0.887c0.6,-0.246 2.279,0.675 2.479,0.742l0.146,-0.042c0.979,-0.288 1.929,-0.779 2.925,-0.858c0.883,-0.067 1.867,0.571 2.712,0.45l1.287,-0.188c1.442,-0.108 3.383,-0.354 4.308,-0.546c0.929,-0.192 3.079,0.758 3.283,0.358l0.296,-0.292l0.212,-0.204c0.392,-0.117 1.879,0 3.3,0.258c1.421,0.258 7.758,-0.454 8.829,-0.221l0.863,0.354l1.083,0.45c0.892,-0.496 2.442,-0.642 3.442,-0.321l0.729,-0.212l1.279,-0.375c1.263,-0.738 2.896,-1.146 3.633,-0.904c0.733,0.246 3.483,0.154 4.404,-0.125c0.917,-0.283 2.788,-0.204 3.55,-0.329c0.767,-0.125 2.896,0.212 3.567,0.4c0.667,0.183 2.617,-0.2 2.879,0.083c0.258,0.287 1.913,0.804 3.071,0.492c1.162,-0.313 7.979,-0.163 10.329,-0.242c2.35,-0.075 6.733,-1.238 7.637,-1.454l1.167,0.262l2.25,0.5c2.683,-0.054 5.696,-0.1 6.704,-0.087l1.008,-0.371l1.3,-0.479c1.717,-0.033 3.817,0.1 4.663,0.296c0.85,0.2 3.796,-0.204 4.525,-0.075l0.679,0.133l0.646,0.121c0.675,0.108 2.996,-0.004 5.162,-0.238l1.929,-0.287l1.638,-0.242c1.833,-0.217 3.462,-0.4 3.625,-0.408c0.158,-0.008 1.279,0.242 2.279,0.408c1,0.167 4.229,0.35 5.063,0.583c0.833,0.237 2.921,1.033 3.212,0.625c0.288,-0.417 1.729,-0.912 2.337,-0.933c0.608,-0.025 2.825,-1.008 4.096,-1.075c1.267,-0.058 6.279,-0.146 8.271,-0.233c1.996,-0.087 8.037,0.413 8.946,0.571c0.904,0.158 3.558,-0.875 4.167,-0.688c0.613,0.188 1.754,0.154 2.154,0.271c0.396,0.112 3.308,-0.371 5.692,-0.896l2.217,0.221l1.617,0.158c1.342,-0.571 3.471,-0.721 4.733,-0.333l1.179,0.075l1.2,0.083c1.338,-0.392 3.129,-0.246 3.987,0.325c0.863,0.567 4.679,-1.467 6.688,-1.808l1.679,1.067c0.146,0.088 0.767,-0.112 0.954,-0.312l0.3,-0.313c0.175,-0.442 0.867,-0.971 1.533,-1.179c0.667,-0.2 3.004,0.679 3.879,0.908c0.871,0.229 4.125,0.108 4.971,0.317c0.842,0.212 2.683,-0.125 3.321,-0.204c0.638,-0.083 3.538,0.254 4.725,0.45c1.188,0.196 5.354,-0.658 6.7,-0.404l0.529,-0.392c1.696,-1.246 2.279,0.896 3.333,0.546l1.096,-0.362c1.042,-0.729 2.654,-1.462 3.588,-1.633c0.933,-0.167 4.404,0.204 5.308,0.371c0.904,0.163 4.125,0.087 4.992,-0.183c0.867,-0.279 3.983,0.263 4.821,0.575c0.833,0.321 4.029,-0.008 5.708,-0.321l1.746,0.6c1.217,0.417 2.987,0.358 3.938,-0.946l3.592,-0.525c3.729,1.208 7.629,0.962 11.283,0.171c1.417,-0.308 2.717,1.675 4.125,-0.208c0.429,-0.571 2.8,-0.288 4.263,-0.196l0.821,0.046c0.879,0.375 1.921,0.558 2.325,0.413c0.4,-0.15 1.475,-0.579 2.3,-1.054c0.825,-0.475 3.108,1.192 3.883,1.1c0.779,-0.092 2.679,-0.858 3.054,-0.946c0.379,-0.083 2.092,0.733 2.925,1.225l0.779,0.004c0.783,0.008 1.546,-0.604 2.367,-0.812l1.358,-0.346c1.421,0.442 2.917,0.896 3.333,1c0.412,0.104 1.458,-0.254 1.962,-0.508c0.496,-0.258 2.271,0.354 2.717,0.258l0.333,-0.192c0.45,-0.271 0.846,-0.933 1.2,-0.904c0.962,0.075 1.908,0.667 2.825,0.612c1.179,-0.062 2.304,-0.688 3.492,-0.817l1.054,-0.108c1.142,0.204 2.812,0.092 3.708,-0.258l0.921,0.642l0.604,0.421c1.012,0.067 3.021,0.225 4.467,0.35c1.446,0.129 5.837,-0.729 6.792,-0.325c0.946,0.4 6.246,-0.179 9.608,0.475l3.15,-1.183c0.929,-0.346 2.413,-0.358 3.308,0.017l1.533,0.638c1.454,-0.396 3.354,-1.1 4.221,-1.562l0.779,0.008c0.779,0.013 1.562,0.554 2.317,0.908l0.438,0.208c0.4,0.271 2.971,0.667 5.7,0.871c2.729,0.2 9.625,-1.863 9.8,-1.783c0.175,0.079 0.512,0.442 0.742,0.608c0.233,0.167 2.354,-0.042 3.6,-0.217c1.25,-0.175 5.475,-0.504 6.608,-0.388c1.138,0.117 4.896,1.246 5.837,1.633c0.942,0.396 3.967,-0.567 4.7,-0.075c0.733,0.488 4.104,-1.225 5.621,-1.837l1.712,1.35l0.746,0.583c2.25,-0.546 5.788,-1.037 7.858,-1.083l1.871,0.087l1.946,0.096c2.096,0.433 4.917,0.138 6.275,-0.667l1.8,1.263c1.396,0.975 3.017,-1.808 4.892,-0.458c1.562,1.125 2.938,0.896 4.283,-0.242c0.092,-0.075 0.392,-0.063 0.546,-0.004l1.279,0.462c1.413,0.154 3.017,0.404 3.562,0.554c0.55,0.154 3.075,-0.725 4.283,-0.983l1.042,0.046l2.146,0.087c2.358,-0.042 6.3,-0.142 8.762,-0.225l2.254,0.071l1.408,0.042c1.533,0.358 3.425,0.746 4.204,0.862c0.771,0.117 2.683,-0.442 3.296,-0.612c0.608,-0.171 2.562,0.642 3.1,0.717l0.079,-0.125l1.158,-1.729c1.333,0.933 5.225,1.421 5.833,1.904" style="fill:#ba0f38;fill-rule:nonzero;"/></svg>
