<svg xmlns="http://www.w3.org/2000/svg" viewBox="0 0 392 392" width="64" height="64" style="fill-rule:evenodd;clip-rule:evenodd;stroke-linejoin:round;stroke-miterlimit:2;">
<g><path d="M92.858,215.167c-0.742,9.138 29.15,16.079 26.508,23.483c-1.417,-0.062 -1.763,0.175 -4.254,1.2c6.146,7.121 4.004,20.888 -4.542,23.292l-4.108,1.154c8.558,1.533 12.425,1.471 17.104,7.954c7.013,9.717 11.383,17.446 14.983,29.05c2.429,7.842 -1.583,11.246 0,19.342c5.279,-8.762 4.471,-6.787 6.25,-15.5c10.075,11.05 26.621,58.921 32.95,72.454c-7.358,2.213 -14.892,3.342 -22.583,3.171c-2.35,-0.05 -5.313,-1.438 -7.3,0.887c-1.129,1.321 -1.904,3.767 -2.375,6.308l-16.979,91.388c-2.771,-0.071 -3.275,-2.229 -4.054,-4.875c-1.821,-6.204 -5.304,-11.621 -7.433,-17.717c-1.658,-4.742 0.371,-9.587 1,-14.379c0.475,-3.612 -1.175,-8.067 0.817,-11.175c3.271,-5.104 4.867,-10.779 1.383,-15.675c2.067,-15.712 6.312,-31.083 11.513,-47.058c9.05,0.758 14.808,11.479 28.4,6.983c-7.442,-3.746 -29.512,-18.733 -36.375,-16.133c-1.112,14.317 -3.187,27.667 -5.692,40.954c-5.471,0.663 -5.587,-4.654 -7.271,-8.733c-2.012,-4.875 -4.771,-8.792 -5.342,-14.371c-0.25,-2.45 -2.483,-5.425 -4.646,-5.021c1.546,-5.292 -0.642,-10.663 8.279,-17.721c-9.254,-4.921 -15.025,-11.558 -19.679,-19.883c-23.192,-41.463 -29.325,-67.471 -4.121,-110.092c1.187,-2.013 2.379,-3.6 2.217,-5.592c2.058,-1.475 3.142,-2.317 5.35,-3.696Z" style="fill:#8691c8;fill-rule:nonzero;"/><path d="M87.508,218.863c0.162,1.992 -1.029,3.579 -2.217,5.592c-25.204,42.621 -19.071,68.629 4.121,110.092c4.654,8.325 10.425,14.962 19.679,19.883c-8.921,7.058 -6.733,12.429 -8.279,17.721c-11.342,38.792 -21.467,78.233 -30.554,117.604c-11.104,0.017 -22.258,0.792 -34.408,-0.042l48.679,-137.425c-7.904,-20.612 -16.004,-40.05 -22.629,-61.029c-9.317,-29.504 14.704,-64.567 19.454,-67.975l6.154,-4.421Z" style="fill:#7886c2;fill-rule:nonzero;"/><path d="M70.258,489.754c9.087,-39.371 19.213,-78.813 30.554,-117.604c2.163,-0.404 4.396,2.571 4.646,5.021c0.571,5.579 3.329,9.496 5.342,14.371c1.683,4.079 1.8,9.396 7.271,8.733c-1.079,5.742 0.317,12 -1.113,17.571l3.267,-2.317c3.483,4.896 1.887,10.571 -1.383,15.675c-1.992,3.108 -0.342,7.562 -0.817,11.175c-0.629,4.792 -2.658,9.638 -1,14.379c2.129,6.096 5.613,11.513 7.433,17.717c0.779,2.646 1.283,4.804 4.054,4.875l-0.404,3.842" style="fill:#808ec6;fill-rule:nonzero;"/><path d="M135.467,259.358c2.096,4.996 8.296,9.563 9.85,15.204c1.063,3.375 1.029,6.917 2.4,10.229c4.171,8.537 9.592,11.492 15.963,16.013c2.092,2.1 2.287,2.896 3.112,4.692c1.871,7.537 6.475,12.804 8.817,19.917c4.096,13.638 11.867,26.375 17.613,39.258c6.108,14.263 16.742,40.237 21.387,51.271c4.283,6.804 -8.088,12.467 -12.954,8.75c-1.196,-0.958 -1.517,-2.238 -2.579,-4.379c-5.45,-11.796 -15.392,-32.554 -21.367,-45.821c-6.579,-15.279 -20.346,-53.688 -29.792,-67.087c-2.821,-4.083 -2.692,-7.504 -5.037,-12.521c-6.008,-14.608 -19.579,-40.504 -19.308,-47.862c0.15,-2.375 2.988,-3.096 5.142,-3.696c4.071,-1.121 6.2,-0.229 5.35,4.1c-0.779,3.988 -0.321,8.013 1.108,11.271l0.296,0.662Z" style="fill:#363b93;fill-rule:nonzero;"/><path d="M119.367,238.65c2.642,-7.404 -27.25,-14.346 -26.508,-23.483c4.175,-2.596 8.658,-6.096 13.225,-7.913c4.517,-1.8 11.746,0.567 15.942,-2.796c18.8,6.267 33.421,-16.483 40.671,-3.738c10.342,18.179 -21.842,38.896 -43.329,37.929Z" style="fill:#9ca7d4;fill-rule:nonzero;"/><path d="M195.8,366.925c-6.063,-14.604 -15.35,-28.446 -19.313,-44.117c19.325,7.083 34.192,-4.5 51.417,-16.667c0.738,24.446 -16.721,46.304 -32.104,60.783Z" style="fill:#8691c8;fill-rule:nonzero;"/><path d="M168.471,259.671c3.471,-9.746 -18.067,-17.754 -25.233,-18.104c8.692,-6.921 18.133,-13.146 28.029,-19.304c4.15,-2.583 10.296,-2.846 15.112,-1.208c3.446,1.171 6.238,5.271 8.217,9.846c6.892,15.946 -12.775,22.412 -26.125,28.771Z" style="fill:#9ca7d4;fill-rule:nonzero;"/><path d="M186.892,286.229c-2.112,-4.621 -4.946,-9.521 -8.8,-13.513c-3.937,-4.071 -14.142,-5.633 -11.367,-7.175c9.538,-5.946 19.667,-12.092 31.058,-15.733c6.108,-1.954 11.242,3.829 13.425,7.554c3.417,5.825 3.204,12.704 -1.65,17.258c-6.5,6.1 -15.629,7.692 -22.667,11.608Z" style="fill:#9ca7d4;fill-rule:nonzero;"/><path d="M164.267,296.133c8.617,-1.721 15.621,-6.004 22.625,-9.904c-2.112,-4.621 -4.946,-9.521 -8.8,-13.513c-3.937,-4.071 -14.142,-5.633 -11.367,-7.175c-2.158,1.346 -4.9,2.15 -7.558,2.858c-2.721,0.725 -4.933,2.688 -6.017,5.288c-1.712,4.112 -3.929,10.146 -3.317,12.542c0.658,2.596 6.271,6.679 9.517,8.854c1.442,0.971 3.212,1.392 4.917,1.05Z" style="fill:#8691c8;fill-rule:nonzero;"/><path d="M190.917,291.646c1.629,3.217 4.696,5.433 7.75,8.071c2.212,1.908 2.742,5.163 5.079,6.954c2.471,1.896 5.538,2.858 5.575,5.979c-9.342,6.525 -33.046,13.975 -38.987,0.321c-1.442,-3.308 -2.104,-9.783 1.754,-12.25c5.988,-3.829 12.471,-6.946 18.829,-9.075Z" style="fill:#8691c8;fill-rule:nonzero;"/><path d="M209.321,312.65c-0.037,-3.121 -3.104,-4.083 -5.575,-5.979c-2.337,-1.792 -2.867,-5.046 -5.079,-6.954c-3.054,-2.637 -6.121,-4.854 -7.75,-8.071c9.725,-5.662 22.717,-18.125 30.771,-4.429c2.617,4.45 4.625,10.125 1.962,15.137c-2.942,5.521 -8.75,9.117 -14.329,10.296Z" style="fill:#9ca7d4;fill-rule:nonzero;"/><path d="M168.596,259.288c-0.071,0.242 -0.254,0.446 -0.479,0.554c-4.671,2.279 -9.092,5.513 -14.175,6.904c-6.304,1.729 -12.063,-1.933 -15.733,-6.908c-0.092,-0.121 -0.15,-0.279 -0.175,-0.429c-1.546,-10.662 -1.625,-12.358 4.908,-17.604c0.179,-0.146 0.4,-0.233 0.629,-0.217c7.375,0.563 27.758,8.275 25.025,17.7Z" style="fill:#8691c8;fill-rule:nonzero;"/><path d="M120.225,415.529l-3.267,2.317c1.429,-5.571 0.033,-11.829 1.113,-17.571c2.504,-13.287 4.579,-26.637 5.692,-40.954c6.863,-2.6 28.933,12.387 36.375,16.133c-13.592,4.496 -19.35,-6.225 -28.4,-6.983c-5.2,15.975 -9.446,31.346 -11.513,47.058Z" style="fill:#7886c2;fill-rule:nonzero;"/><path d="M382.546,154.287c-20.758,14.104 -44.025,21.067 -69.054,23.813c-22.171,2.433 -44.579,2.858 -67.458,0.412l24.375,-11.904l0.071,-1.721l30,-1.187c11.529,-0.454 22.888,-2.842 34.279,-5.554c8.379,-1.996 15.933,-4.913 23.517,-8.204c0.183,-0.225 -0.067,-0.808 -0.35,-0.738c-0.454,0.95 -1.525,0.963 -2.262,1.075c-2.421,0.367 -4.142,2.908 -4.862,1.879c-0.358,0.246 -0.471,0.658 -0.792,0.688c-0.137,0.017 -0.388,-0.4 -0.479,-0.296c-0.3,0.367 -0.504,0.637 -0.779,0.7c-0.129,0.025 -0.4,-0.408 -0.487,-0.279l-0.454,0.667c-0.187,0.279 -0.392,0.179 -0.75,-0.296c-0.496,0.937 -1.467,0.833 -2.571,0.925c-0.246,0.017 -0.363,0.546 -0.521,0.629c-0.171,0.092 -0.342,0.133 -0.717,-0.271c-2.9,2.733 -2.533,-0.146 -3.504,1.425c-0.213,0.346 -0.571,-0.242 -0.713,-0.113c-0.392,0.367 -0.587,0.629 -0.896,0.771c-0.233,0.108 -0.379,0.038 -0.771,-0.438c-0.363,1.479 -4.467,1.108 -4.2,1.638c-0.487,-0.963 -0.338,0.175 -1.783,0.504c-0.242,0.054 -0.608,-0.454 -0.808,-0.325c-0.442,0.288 -0.633,0.596 -0.808,0.696c-0.258,0.15 -0.746,-0.404 -0.904,-0.283c-0.442,0.804 -1.504,0.646 -2.304,0.504c-2.783,1.712 0.125,-0.663 -3.15,1.137c-0.258,0.142 -0.883,-0.7 -1.054,-0.467c-0.933,1.279 -2.075,0.433 -2.662,0.738c-0.754,0.392 -7.954,1.196 -9.129,1.321l-2.846,0.308c-1.704,0.187 -3.279,0.358 -4.979,0.454c-1.208,0.067 -2.446,0.846 -3.904,0.304c-1.079,-0.396 -2.358,0.138 -3.25,0.442c-2.046,0.696 -4.038,-0.254 -5.588,0.046c-8.171,1.583 -5.871,-0.446 -12.888,0.525c-2.158,0.3 -5.004,-0.113 -7.029,0.846c-0.371,0.279 0.029,1.737 -0.85,1.7c-0.371,-0.017 -0.833,0.183 -1.613,-0.004c-17.629,-4.279 -35.242,-7.479 -53.362,-9.092c-0.708,-0.062 -0.883,0.567 -1.317,0.667l13.167,31.775c25.021,8.408 57.35,7.846 83.275,5.454c15.308,-1.412 30.017,-3.979 44.471,-8.671c11.808,-3.833 25.425,-10.4 35.4,-19.154c-0.346,-0.854 -0.658,-1.717 -0.992,-2.575c-1.946,-3.467 -3.842,-6.967 -5.713,-10.471Z" style="fill:#363b93;fill-rule:nonzero;"/><path d="M352.975,65.587c-1.254,-3.679 -2.112,-7.463 -3.096,-11.304c-0.396,-1.542 -0.804,-3.079 -1.208,-4.621c-13.542,8.371 -28.187,14.367 -44.054,17.704c-14.596,3.067 -29.338,4.254 -44.138,4.154c2.688,4.675 6.1,8.954 9.838,13.092c0.483,0.537 1.025,0.867 0.783,1.55c28.517,0.375 57.746,-4.9 81.875,-20.575Z" style="fill:#fff;fill-rule:nonzero;"/><path d="M252.62,55.398c0,0 23.501,1.55 45.301,-2.951c24.116,-4.979 46.742,-16.292 46.225,-18.309c-0.396,-1.542 -2.617,-14.649 -3.021,-16.191c-13.542,8.371 -35.69,17.897 -54.646,20.058c-14.596,3.067 -38.206,2.142 -38.206,2.142l4.347,15.251Z" style="fill:#fff;fill-rule:nonzero;"/><path d="M376.783,143.508c-0.467,-0.858 -0.879,-1.737 -1.317,-2.612c-5.483,3.458 -11.258,6.471 -17.192,9.046c-7.583,3.292 -15.138,6.208 -23.517,8.204c-11.392,2.713 -22.75,5.1 -34.279,5.554c4.238,3.975 8.1,9.217 12.833,13.562c-0.133,0.508 0.208,0.625 0.179,0.838c25.029,-2.746 48.296,-9.708 69.054,-23.813c-1.925,-3.6 -3.829,-7.204 -5.762,-10.779Z" style="fill:#dddcdd;fill-rule:nonzero;"/><path d="M358.937,84.6c-0.396,-1.538 -0.883,-3.046 -1.333,-4.567c-21.858,13.912 -45.067,20.15 -71.292,21.233l12.617,14.271c0.179,0.2 0.617,-0.133 0.925,-0.087c0.246,0.038 0.708,-0.15 0.658,0.408c21.688,-2.112 42.842,-8 61.15,-19.888c-0.871,-3.8 -1.754,-7.596 -2.725,-11.371Z" style="fill:#fff;fill-rule:nonzero;"/><path d="M365.179,111.062c-16.129,10.079 -33.954,16.542 -52.962,19.321c4.921,4.692 11.575,10.296 17.771,12.737c13.942,-3.208 27.533,-8.75 39.65,-16.446c-1.721,-5.129 -3.162,-10.358 -4.458,-15.613Z" style="fill:#fff;fill-rule:nonzero;"/><path d="M187.733,90.271c-1.917,3.604 -5.408,11.762 -4.688,15.754c-10.183,-0.321 -20.3,0.362 -30.729,1.575c-17.758,2.067 -34.6,7.321 -50.142,15.454c-0.329,-0.087 0.442,-0.658 0.358,-0.817l-7.4,-14.254c27.783,-15.846 61.012,-19.367 92.6,-17.712Z" style="fill:#fff;fill-rule:nonzero;"/><path d="M253.025,130.86c0.495,0.15 3.414,0.67 5.093,1.676c2.32,6.096 6.138,16.077 6.138,16.077c7.273,2.576 -46.081,-10.474 -69.925,-9.592c-32.955,-1.521 -52.593,3.22 -76.431,12.88c-2.947,-6.589 -0.621,-1.812 -4.165,-8.539c-0.535,-1.017 -3.279,-5.266 -2.348,-5.799c6.4,-4.298 14.983,-6.821 23.744,-9.982c36.287,-8.816 69.846,-5.543 94.173,-1.076c8.984,1.65 18.705,2.838 23.72,4.354Z" style="fill:#fff;fill-rule:nonzero;"/><path d="M244.937,100.308c0.121,0.167 -0.192,0.479 -0.05,0.838l5.579,13.983c-22.129,-5.033 -44.65,-8.383 -67.421,-9.104c-0.721,-3.992 2.771,-12.15 4.688,-15.754c18.938,0.992 37.804,4.029 56.279,8.729l0.925,1.308Z" style="fill:#dfdedd;fill-rule:nonzero;"/><path d="M237.829,70.138c0.117,0.621 1.096,0.4 1.346,1.033l5.042,12.713c0.196,0.5 -0.133,0.929 -0.092,1.258c-1.833,-0.221 -3.896,0.171 -5.833,-0.517c-0.604,-0.45 -0.667,-1.7 -1.354,-2.629c-15.271,-3.533 -30.433,-6.288 -46.033,-8.025l-6.025,-16.646c15.517,1.808 30.542,4.437 45.421,8.35c0.871,1.05 0.867,2.717 1.871,3.667c1.858,0.325 3.896,0.683 5.658,0.796Z" style="fill:#c8c8ca;fill-rule:nonzero;"/><path d="M218.513,36.808l-0.092,1.154c-0.288,3.608 3.229,6.9 4.187,10.417c-14.604,-3.571 -29.367,-6.45 -44.571,-8.408l-6.262,-16.787c15.108,1.983 29.246,4.567 43.608,8.146c1.425,1.813 1.442,4.171 3.129,5.479Z" style="fill:#fff;fill-rule:nonzero;"/><path d="M312.217,130.383c4.921,4.692 11.575,10.296 17.771,12.737c-14.017,3.225 -28.521,5.304 -42.933,5.512c0.237,-0.733 -0.158,-1.142 -0.708,-1.746c-3.992,-4.375 -7.275,-9.1 -10.708,-13.633c12.258,0.2 24.496,-1.104 36.579,-2.871Z" style="fill:#ddd;fill-rule:nonzero;"/><path d="M286.312,101.267l12.617,14.267c0.179,0.204 0.617,-0.129 0.925,-0.083c0.246,0.038 0.708,-0.15 0.658,0.408c-12.15,1.183 -24.421,1.637 -36.608,0.913l-10.425,-14.829l-0.992,-0.563c-0.108,-0.058 0.029,-0.133 0.037,-0.392c11.229,0.838 22.538,0.746 33.787,0.279Z" style="fill:#ddd;fill-rule:nonzero;"/><path d="M248.65,40.196c0.575,4.892 2.367,9.637 3.808,14.617c0.012,0.333 -0.075,0.633 0.029,0.796c-9.204,-0.388 -18.3,-0.937 -27.642,-2.508c-0.358,-1.796 -1.842,-3.267 -2.238,-4.721c-0.958,-3.517 -4.475,-6.808 -4.187,-10.417l0.092,-1.154c10.012,1.442 20.033,3.033 30.137,3.388Z" style="fill:#dfdedd;fill-rule:nonzero;"/><path d="M260.479,71.521c2.688,4.675 6.1,8.954 9.838,13.092c0.483,0.537 1.025,0.867 0.783,1.55c-8.992,-0.117 -18.033,0.05 -26.975,-1.021c-0.042,-0.329 0.288,-0.758 0.092,-1.258l-5.042,-12.713c-0.25,-0.633 -1.229,-0.412 -1.346,-1.033c7.542,0.471 15.092,1.333 22.65,1.383Z" style="fill:#dfddde;fill-rule:nonzero;"/><path d="M275.637,133.254c3.433,4.533 6.717,9.258 10.708,13.633c0.55,0.604 0.946,1.013 0.708,1.746c-7.325,0.104 -15.558,1.45 -22.808,0.108l-5.461,-13.904c-0.248,-0.357 -1.226,-2.186 -1.033,-3.018l17.885,1.434Z" style="fill:#c2c1c3;fill-rule:nonzero;"/><path d="M110.275,137.821c0.458,0.283 0.992,0.592 1.313,1.267c2.125,4.463 4.796,8.463 6.563,12.833l-14.754,8.021l-6.383,-14.925c4.55,-2.65 8.696,-5.4 13.262,-7.196Z" style="fill:#dfddde;fill-rule:nonzero;"/><path d="M102.175,123.054c-3.867,2.021 -7.658,4.133 -11.692,6.517l-6.471,-15.233c3.521,-2.846 7.546,-4.317 11.121,-6.354l7.4,14.254c0.083,0.158 -0.687,0.729 -0.358,0.817Z" style="fill:#e0dedf;fill-rule:nonzero;"/><path d="M252.525,100.987c-0.008,0.258 -0.146,0.333 -0.037,0.392l0.992,0.563l10.425,14.829c-4.129,-0.246 -8.279,-0.163 -12.546,-0.637c-0.338,-0.046 -0.692,-0.796 -0.892,-1.004l-5.579,-13.983c-0.142,-0.358 0.171,-0.671 0.05,-0.838c2.542,-0.1 5.058,0.492 7.587,0.679Z" style="fill:#c2c1c3;fill-rule:nonzero;"/><path d="M375.467,140.896c-2.292,-4.596 -4.2,-9.358 -5.829,-14.221c-12.117,7.696 -25.708,13.238 -39.65,16.446c-14.017,3.225 -28.521,5.304 -42.933,5.508c-7.325,0.108 -15.558,1.454 -22.808,0.113c-20.196,-3.737 -40.333,-8.087 -61.017,-9.475c-13.258,-0.892 -26.421,-0.833 -39.954,0.525c-15.883,1.592 -30.833,5.721 -45.125,12.129l-14.754,8.021l-6.383,-14.925c4.55,-2.65 8.696,-5.4 13.262,-7.196c24.058,-13.038 51.258,-16.108 78.292,-15.683c20.042,0.317 49.008,4.992 68.933,9.562c0.833,0.192 0.8,1.271 1.746,1.287l16.392,0.267c12.258,0.2 24.496,-1.104 36.579,-2.871c19.008,-2.779 36.833,-9.242 52.962,-19.321c-0.533,-2.167 -1.054,-4.333 -1.554,-6.496c-0.662,-2.863 -1.308,-5.729 -1.962,-8.596c-18.308,11.888 -39.463,17.775 -61.15,19.888c-12.15,1.183 -24.421,1.637 -36.608,0.913c-4.129,-0.246 -8.279,-0.163 -12.546,-0.637c-0.338,-0.046 -0.692,-0.796 -0.892,-1.004c-22.129,-5.033 -44.65,-8.383 -67.421,-9.104c-10.183,-0.321 -20.3,0.362 -30.729,1.575c-17.758,2.067 -34.6,7.321 -50.142,15.454c-3.867,2.021 -7.658,4.133 -11.692,6.517l-6.471,-15.233c3.521,-2.846 7.546,-4.317 11.121,-6.354c27.783,-15.846 61.012,-19.367 92.6,-17.712c18.938,0.992 37.804,4.029 56.279,8.729l0.925,1.308c2.542,-0.1 5.058,0.492 7.587,0.679c11.229,0.838 22.538,0.746 33.787,0.279c26.225,-1.083 49.433,-7.321 71.292,-21.233c-1.054,-3.592 -2.125,-7.175 -3.192,-10.763c-0.533,-1.217 -1.017,-2.442 -1.438,-3.683c-24.129,15.675 -53.358,20.95 -81.875,20.575c-8.992,-0.117 -18.033,0.05 -26.975,-1.021c-1.833,-0.221 -3.896,0.171 -5.833,-0.517c-0.604,-0.45 -0.667,-1.7 -1.354,-2.629c-15.271,-3.533 -30.433,-6.288 -46.033,-8.025l-6.025,-16.646c15.517,1.808 30.542,4.437 45.421,8.35c0.875,1.05 0.867,2.717 1.871,3.667c1.858,0.325 3.896,0.683 5.658,0.796c7.542,0.471 15.092,1.333 22.65,1.383c14.8,0.1 29.542,-1.088 44.138,-4.154c15.867,-3.338 30.512,-9.333 44.054,-17.704c-1.325,-5.054 -2.671,-10.1 -3.892,-15.179c-0.008,-0.021 -0.008,-0.046 -0.017,-0.067c-27.517,17.1 -60.117,22.537 -92.275,21.192c-9.204,-0.388 -18.3,-0.937 -27.642,-2.508c-0.358,-1.796 -1.842,-3.267 -2.238,-4.721c-14.608,-3.571 -29.367,-6.45 -44.571,-8.408l-6.262,-16.787c15.108,1.983 29.246,4.567 43.604,8.146c1.429,1.813 1.446,4.171 3.133,5.479c10.012,1.442 20.033,3.033 30.137,3.388c33.258,1.167 64.463,-4.688 92.713,-22.388c-0.012,-0.046 -0.017,-0.092 -0.029,-0.142c-2.646,-4.275 -3.962,-8.4 -6.325,-13.621c-8.008,4.596 -16.021,8.187 -24.487,11.1c-32.563,11.2 -66.208,11.871 -99.913,4.962l-2.967,-6.379l-17,-3.975c-23.283,-5.446 -52.358,-8.354 -76.329,-6.908c-24.233,1.462 -47.629,7.325 -69.879,17.767c-2.667,-3.708 -3.55,-13.496 -10.262,-11.129c-2.067,0.725 -3.871,1.488 -6.042,2.429c-1.729,0.75 -3.467,3.308 -2.542,5.492l79.804,188.558c5.817,0.658 11.425,0.404 16.592,-2.162l-11.937,-28.171c0,0 65.662,-22.267 101.65,-18.892c0.767,0.071 1.008,0.771 1.242,1.192c0.433,-0.1 0.608,-0.729 1.317,-0.667c18.121,1.613 35.733,4.813 53.362,9.092c0.779,0.187 1.242,-0.013 1.613,0.004c0.879,0.037 0.479,-1.421 0.85,-1.7c2.025,-0.958 4.871,-0.546 7.029,-0.846c7.017,-0.971 4.717,1.058 12.888,-0.525c1.55,-0.3 3.542,0.65 5.588,-0.046c0.892,-0.304 2.171,-0.838 3.25,-0.442c1.458,0.542 2.696,-0.237 3.904,-0.304c1.7,-0.096 3.275,-0.267 4.979,-0.454l2.846,-0.308c1.175,-0.125 8.375,-0.929 9.129,-1.321c0.587,-0.304 1.729,0.542 2.662,-0.738c0.171,-0.233 0.796,0.608 1.054,0.467c3.275,-1.8 0.367,0.575 3.15,-1.137c0.8,0.142 1.862,0.3 2.304,-0.504c0.158,-0.121 0.646,0.433 0.904,0.283c0.175,-0.1 0.367,-0.408 0.808,-0.696c0.2,-0.129 0.567,0.379 0.808,0.325c1.446,-0.329 1.296,-1.467 1.783,-0.504c-0.267,-0.529 3.837,-0.158 4.2,-1.638c0.392,0.475 0.537,0.546 0.771,0.438c0.308,-0.142 0.504,-0.404 0.896,-0.771c0.142,-0.129 0.5,0.458 0.713,0.113c0.971,-1.571 0.604,1.308 3.504,-1.425c0.375,0.404 0.546,0.362 0.717,0.271c0.158,-0.083 0.275,-0.613 0.521,-0.629c1.104,-0.092 2.075,0.012 2.571,-0.925c0.358,0.475 0.563,0.575 0.75,0.296l0.454,-0.667c0.087,-0.129 0.358,0.304 0.487,0.279c0.275,-0.062 0.479,-0.333 0.779,-0.7c0.092,-0.104 0.342,0.312 0.479,0.296c0.321,-0.029 0.433,-0.442 0.792,-0.688c0.721,1.029 2.442,-1.512 4.862,-1.879c0.738,-0.113 1.808,-0.125 2.262,-1.075c0.283,-0.071 0.533,0.513 0.35,0.738c5.933,-2.575 11.708,-5.588 17.192,-9.046Z" style="fill:#363b93;fill-rule:nonzero;"/><path d="M300.479,163.7c4.238,3.975 8.1,9.217 12.833,13.562c-0.133,0.508 0.208,0.625 0.179,0.838c-22.171,2.433 -44.579,2.858 -67.458,0.412l24.375,-11.9l0.071,-1.725l30,-1.187Z" style="fill:#c1c0c3;fill-rule:nonzero;"/><path d="M141.029,68.996c5.187,-3.458 10.979,-6.013 16.275,-9.283c1.263,8.108 5.667,14.417 12.017,20.267c-10.633,1.033 -20.142,-3.775 -28.292,-10.983Z" style="fill:#8691c8;fill-rule:nonzero;"/><path d="M158.342,69.471l-36.279,4.717c-1.121,0.146 -2.225,0.383 -3.308,0.717l-15.717,3.725c-1.175,0.417 -10.712,3.862 -13.142,4.221l-10.358,4.3c-13.308,2.829 -9.737,0.971 -15.125,-9.183l-10.454,-31.396c-1.996,-8.813 3.138,-17.704 11.471,-19.862l20.358,-7.3c2.667,-0.954 5.412,-1.646 8.196,-2.071l17.292,-3.671l28.625,-3.571c1.788,-0.221 3.592,-0.304 5.392,-0.262c8.537,0.196 15.638,0.583 17.442,8.554l7.075,31.221c1.996,8.813 -3.138,17.704 -11.467,19.862Z" style="fill:#8691c8;fill-rule:nonzero;"/><path d="M71.442,42.567l73.067,-18.429c5.096,-1.317 5.096,-1.317 4.133,-4.079c-0.454,-1.308 -1.471,-2.958 -5.854,-1.825l-72.204,18.646c-5.388,1.392 -5.967,2.437 -5.725,4.888c0.267,2.721 1.933,2.004 6.583,0.8Z" style="fill:#fff;fill-rule:nonzero;"/><path d="M74.412,55.667l73.063,-18.429c5.1,-1.317 5.1,-1.317 4.138,-4.083c-0.454,-1.304 -1.475,-2.954 -5.858,-1.821l-72.2,18.646c-5.392,1.392 -5.971,2.437 -5.729,4.887c0.267,2.721 1.933,2.004 6.587,0.8Z" style="fill:#fff;fill-rule:nonzero;"/><path d="M77.346,68.613l73.067,-18.429c5.096,-1.321 5.096,-1.321 4.133,-4.083c-0.454,-1.304 -1.475,-2.958 -5.858,-1.825l-72.2,18.65c-5.392,1.392 -5.971,2.437 -5.729,4.883c0.271,2.721 1.933,2.008 6.587,0.804Z" style="fill:#fff;fill-rule:nonzero;"/><path d="M11.587,206.35l19.117,-22.354l29.413,42.754l-48.529,-20.4Z" style="fill:#8691c8;fill-rule:nonzero;"/><path d="M1.246,289.058l-1.246,-29.388l50.663,11.238l-49.417,18.15Z" style="fill:#8691c8;fill-rule:nonzero;"/><path d="M36.408,368.913l-22.117,-19.396l43.121,-28.875l-21.004,48.271Z" style="fill:#8691c8;fill-rule:nonzero;"/><path d="M13.842,242.3l2.117,-9.075l7.396,2.717l26.675,9.8l3.258,1.196l-39.446,-4.637Z" style="fill:#cc1a3e;fill-rule:nonzero;"/><path d="M22.067,317.792l-4.592,-8.108l7.279,-3.008l26.267,-10.858l3.208,-1.325l-32.163,23.3Z" style="fill:#cc1a3e;fill-rule:nonzero;"/></g>
</svg>
